<mxfile host="app.diagrams.net" agent="Mozilla/5.0 (X11; Linux x86_64) AppleWebKit/537.36 (KHTML, like Gecko) Chrome/128.0.0.0 Safari/537.36" version="24.7.12">
  <diagram name="Strona-1" id="l2mlURXPRyVoS3bdO42i">
    <mxGraphModel dx="782" dy="1164" grid="1" gridSize="10" guides="1" tooltips="1" connect="1" arrows="1" fold="1" page="1" pageScale="1" pageWidth="827" pageHeight="1169" math="0" shadow="0">
      <root>
        <mxCell id="0" />
        <mxCell id="1" parent="0" />
        <mxCell id="0-CQRosKPqwTe5LOo3xO-4" value="" style="edgeStyle=orthogonalEdgeStyle;rounded=0;orthogonalLoop=1;jettySize=auto;html=1;" parent="1" source="0-CQRosKPqwTe5LOo3xO-1" target="0-CQRosKPqwTe5LOo3xO-3" edge="1">
          <mxGeometry relative="1" as="geometry">
            <Array as="points">
              <mxPoint x="360" y="180" />
              <mxPoint x="180" y="180" />
            </Array>
          </mxGeometry>
        </mxCell>
        <mxCell id="0-CQRosKPqwTe5LOo3xO-6" value="" style="edgeStyle=orthogonalEdgeStyle;rounded=0;orthogonalLoop=1;jettySize=auto;html=1;entryX=0.5;entryY=0;entryDx=0;entryDy=0;" parent="1" source="0-CQRosKPqwTe5LOo3xO-1" target="0-CQRosKPqwTe5LOo3xO-5" edge="1">
          <mxGeometry relative="1" as="geometry">
            <Array as="points">
              <mxPoint x="360" y="180" />
              <mxPoint x="570" y="180" />
            </Array>
          </mxGeometry>
        </mxCell>
        <mxCell id="0-CQRosKPqwTe5LOo3xO-8" value="" style="edgeStyle=orthogonalEdgeStyle;rounded=0;orthogonalLoop=1;jettySize=auto;html=1;" parent="1" source="0-CQRosKPqwTe5LOo3xO-1" target="0-CQRosKPqwTe5LOo3xO-7" edge="1">
          <mxGeometry relative="1" as="geometry" />
        </mxCell>
        <mxCell id="0-CQRosKPqwTe5LOo3xO-10" value="" style="edgeStyle=orthogonalEdgeStyle;rounded=0;orthogonalLoop=1;jettySize=auto;html=1;" parent="1" source="0-CQRosKPqwTe5LOo3xO-1" target="0-CQRosKPqwTe5LOo3xO-9" edge="1">
          <mxGeometry relative="1" as="geometry" />
        </mxCell>
        <mxCell id="0-CQRosKPqwTe5LOo3xO-1" value="&lt;font face=&quot;Courier New&quot;&gt;/&lt;/font&gt;" style="ellipse;whiteSpace=wrap;html=1;" parent="1" vertex="1">
          <mxGeometry x="320" y="100" width="80" height="40" as="geometry" />
        </mxCell>
        <mxCell id="0-CQRosKPqwTe5LOo3xO-3" value="&lt;font face=&quot;Courier New&quot;&gt;bin&lt;/font&gt;" style="ellipse;whiteSpace=wrap;html=1;" parent="1" vertex="1">
          <mxGeometry x="140" y="220" width="80" height="40" as="geometry" />
        </mxCell>
        <mxCell id="0-CQRosKPqwTe5LOo3xO-5" value="root" style="ellipse;whiteSpace=wrap;html=1;" parent="1" vertex="1">
          <mxGeometry x="530" y="220" width="80" height="40" as="geometry" />
        </mxCell>
        <mxCell id="0-CQRosKPqwTe5LOo3xO-7" value="&lt;font face=&quot;Courier New&quot;&gt;boot&lt;/font&gt;" style="ellipse;whiteSpace=wrap;html=1;" parent="1" vertex="1">
          <mxGeometry x="270" y="220" width="80" height="40" as="geometry" />
        </mxCell>
        <mxCell id="0-CQRosKPqwTe5LOo3xO-14" value="" style="edgeStyle=orthogonalEdgeStyle;rounded=0;orthogonalLoop=1;jettySize=auto;html=1;" parent="1" source="0-CQRosKPqwTe5LOo3xO-9" target="0-CQRosKPqwTe5LOo3xO-13" edge="1">
          <mxGeometry relative="1" as="geometry" />
        </mxCell>
        <mxCell id="0-CQRosKPqwTe5LOo3xO-9" value="&lt;font face=&quot;Courier New&quot;&gt;home&lt;/font&gt;" style="ellipse;whiteSpace=wrap;html=1;" parent="1" vertex="1">
          <mxGeometry x="400" y="220" width="80" height="40" as="geometry" />
        </mxCell>
        <mxCell id="0-CQRosKPqwTe5LOo3xO-13" value="&lt;font face=&quot;Courier New&quot;&gt;majk&lt;/font&gt;" style="ellipse;whiteSpace=wrap;html=1;" parent="1" vertex="1">
          <mxGeometry x="400" y="300" width="80" height="40" as="geometry" />
        </mxCell>
      </root>
    </mxGraphModel>
  </diagram>
</mxfile>
